M48
;GenerationSoftware,Autodesk,EAGLE,9.6.2*%
;CreationDate,2023-04-03T04:02:25Z*%
FMAT,2
ICI,OFF
INCH,TZ,00.0000
T5C0.0276
T4C0.0320
T3C0.0394
T2C0.0400
T1C0.1180
%
G90
M72
T1
X13280Y2433
X12098Y4283
X10917Y2433
T2
X1378Y15339
X7295Y10555
X14843Y11787
X14843Y9787
X16358Y9803
X16358Y10803
X16358Y11803
X16358Y12803
X16358Y13803
X16358Y14803
X16358Y15803
X14843Y10787
X16358Y16803
X16358Y17803
X3051Y2606
X3051Y3606
X3051Y4606
X1378Y17339
X1378Y16339
X16358Y18803
X1378Y14339
X1378Y13339
X1378Y12339
X1457Y25358
X1457Y24358
X1457Y23358
X1457Y22358
X1457Y21358
X16476Y22339
X16476Y23339
X16476Y24339
X16476Y25339
X9855Y8775
X7295Y8775
X9855Y10555
T3
X16457Y20472
X1378Y19213
X1457Y8898
X16299Y7087
T4
X12047Y12311
X13047Y12311
X14953Y22035
X4866Y18602
X3866Y18602
X11882Y10559
X11882Y7559
X2681Y20406
X5681Y20406
X5146Y1476
X5146Y2476
X5736Y5319
X5736Y6319
X9823Y12390
X9823Y13390
X9823Y14390
X9823Y15390
X9823Y16390
X9823Y17390
X9823Y18390
X9823Y19390
X9823Y20390
X9823Y21390
X9823Y22390
X9823Y23390
X9823Y24390
X9823Y25390
X13945Y19673
X6823Y24390
X6823Y23390
X6823Y22390
X6823Y21390
X6823Y20390
X6823Y19390
X6823Y18390
X6823Y17390
X6823Y16390
X6823Y15390
X6823Y25390
X6823Y13390
X6823Y12390
X2650Y10630
X3650Y10630
X5713Y8740
X2713Y8740
X14945Y19673
X13953Y22035
X6823Y14390
T5
X11870Y19815
X11870Y21815
M30