G04 EAGLE Gerber X2 export*
%TF.Part,Single*%
%TF.FileFunction,Profile,NP*%
%TF.FilePolarity,Positive*%
%TF.GenerationSoftware,Autodesk,EAGLE,9.6.2*%
%TF.CreationDate,2023-04-03T04:02:25Z*%
G75*
%MOIN*%
%FSLAX36Y36*%
%LPD*%
%INBoard Outline*%
%AMOC8*
5,1,8,0,0,1.08239X$1,22.5*%
G01*
%ADD10C,0.000000*%
%ADD11C,0.010000*%


D10*
X0Y0D02*
X1771654Y0D01*
X1771654Y2637795D01*
X0Y2637795D01*
X0Y0D01*
X1610236Y708661D02*
X1610242Y709144D01*
X1610260Y709627D01*
X1610289Y710109D01*
X1610331Y710590D01*
X1610384Y711071D01*
X1610449Y711549D01*
X1610526Y712026D01*
X1610614Y712501D01*
X1610714Y712974D01*
X1610826Y713444D01*
X1610949Y713911D01*
X1611084Y714375D01*
X1611230Y714836D01*
X1611387Y715293D01*
X1611555Y715746D01*
X1611734Y716194D01*
X1611925Y716638D01*
X1612126Y717077D01*
X1612338Y717512D01*
X1612560Y717940D01*
X1612793Y718364D01*
X1613037Y718781D01*
X1613290Y719192D01*
X1613554Y719597D01*
X1613827Y719996D01*
X1614110Y720387D01*
X1614402Y720772D01*
X1614704Y721149D01*
X1615015Y721519D01*
X1615335Y721881D01*
X1615664Y722235D01*
X1616002Y722580D01*
X1616347Y722918D01*
X1616701Y723247D01*
X1617063Y723567D01*
X1617433Y723878D01*
X1617810Y724180D01*
X1618195Y724472D01*
X1618586Y724755D01*
X1618985Y725028D01*
X1619390Y725292D01*
X1619801Y725545D01*
X1620218Y725789D01*
X1620642Y726022D01*
X1621070Y726244D01*
X1621505Y726456D01*
X1621944Y726657D01*
X1622388Y726848D01*
X1622836Y727027D01*
X1623289Y727195D01*
X1623746Y727352D01*
X1624207Y727498D01*
X1624671Y727633D01*
X1625138Y727756D01*
X1625608Y727868D01*
X1626081Y727968D01*
X1626556Y728056D01*
X1627033Y728133D01*
X1627511Y728198D01*
X1627992Y728251D01*
X1628473Y728293D01*
X1628955Y728322D01*
X1629438Y728340D01*
X1629921Y728346D01*
X1630404Y728340D01*
X1630887Y728322D01*
X1631369Y728293D01*
X1631850Y728251D01*
X1632331Y728198D01*
X1632809Y728133D01*
X1633286Y728056D01*
X1633761Y727968D01*
X1634234Y727868D01*
X1634704Y727756D01*
X1635171Y727633D01*
X1635635Y727498D01*
X1636096Y727352D01*
X1636553Y727195D01*
X1637006Y727027D01*
X1637454Y726848D01*
X1637898Y726657D01*
X1638337Y726456D01*
X1638772Y726244D01*
X1639200Y726022D01*
X1639624Y725789D01*
X1640041Y725545D01*
X1640452Y725292D01*
X1640857Y725028D01*
X1641256Y724755D01*
X1641647Y724472D01*
X1642032Y724180D01*
X1642409Y723878D01*
X1642779Y723567D01*
X1643141Y723247D01*
X1643495Y722918D01*
X1643840Y722580D01*
X1644178Y722235D01*
X1644507Y721881D01*
X1644827Y721519D01*
X1645138Y721149D01*
X1645440Y720772D01*
X1645732Y720387D01*
X1646015Y719996D01*
X1646288Y719597D01*
X1646552Y719192D01*
X1646805Y718781D01*
X1647049Y718364D01*
X1647282Y717940D01*
X1647504Y717512D01*
X1647716Y717077D01*
X1647917Y716638D01*
X1648108Y716194D01*
X1648287Y715746D01*
X1648455Y715293D01*
X1648612Y714836D01*
X1648758Y714375D01*
X1648893Y713911D01*
X1649016Y713444D01*
X1649128Y712974D01*
X1649228Y712501D01*
X1649316Y712026D01*
X1649393Y711549D01*
X1649458Y711071D01*
X1649511Y710590D01*
X1649553Y710109D01*
X1649582Y709627D01*
X1649600Y709144D01*
X1649606Y708661D01*
X1649600Y708178D01*
X1649582Y707695D01*
X1649553Y707213D01*
X1649511Y706732D01*
X1649458Y706251D01*
X1649393Y705773D01*
X1649316Y705296D01*
X1649228Y704821D01*
X1649128Y704348D01*
X1649016Y703878D01*
X1648893Y703411D01*
X1648758Y702947D01*
X1648612Y702486D01*
X1648455Y702029D01*
X1648287Y701576D01*
X1648108Y701128D01*
X1647917Y700684D01*
X1647716Y700245D01*
X1647504Y699810D01*
X1647282Y699382D01*
X1647049Y698958D01*
X1646805Y698541D01*
X1646552Y698130D01*
X1646288Y697725D01*
X1646015Y697326D01*
X1645732Y696935D01*
X1645440Y696550D01*
X1645138Y696173D01*
X1644827Y695803D01*
X1644507Y695441D01*
X1644178Y695087D01*
X1643840Y694742D01*
X1643495Y694404D01*
X1643141Y694075D01*
X1642779Y693755D01*
X1642409Y693444D01*
X1642032Y693142D01*
X1641647Y692850D01*
X1641256Y692567D01*
X1640857Y692294D01*
X1640452Y692030D01*
X1640041Y691777D01*
X1639624Y691533D01*
X1639200Y691300D01*
X1638772Y691078D01*
X1638337Y690866D01*
X1637898Y690665D01*
X1637454Y690474D01*
X1637006Y690295D01*
X1636553Y690127D01*
X1636096Y689970D01*
X1635635Y689824D01*
X1635171Y689689D01*
X1634704Y689566D01*
X1634234Y689454D01*
X1633761Y689354D01*
X1633286Y689266D01*
X1632809Y689189D01*
X1632331Y689124D01*
X1631850Y689071D01*
X1631369Y689029D01*
X1630887Y689000D01*
X1630404Y688982D01*
X1629921Y688976D01*
X1629438Y688982D01*
X1628955Y689000D01*
X1628473Y689029D01*
X1627992Y689071D01*
X1627511Y689124D01*
X1627033Y689189D01*
X1626556Y689266D01*
X1626081Y689354D01*
X1625608Y689454D01*
X1625138Y689566D01*
X1624671Y689689D01*
X1624207Y689824D01*
X1623746Y689970D01*
X1623289Y690127D01*
X1622836Y690295D01*
X1622388Y690474D01*
X1621944Y690665D01*
X1621505Y690866D01*
X1621070Y691078D01*
X1620642Y691300D01*
X1620218Y691533D01*
X1619801Y691777D01*
X1619390Y692030D01*
X1618985Y692294D01*
X1618586Y692567D01*
X1618195Y692850D01*
X1617810Y693142D01*
X1617433Y693444D01*
X1617063Y693755D01*
X1616701Y694075D01*
X1616347Y694404D01*
X1616002Y694742D01*
X1615664Y695087D01*
X1615335Y695441D01*
X1615015Y695803D01*
X1614704Y696173D01*
X1614402Y696550D01*
X1614110Y696935D01*
X1613827Y697326D01*
X1613554Y697725D01*
X1613290Y698130D01*
X1613037Y698541D01*
X1612793Y698958D01*
X1612560Y699382D01*
X1612338Y699810D01*
X1612126Y700245D01*
X1611925Y700684D01*
X1611734Y701128D01*
X1611555Y701576D01*
X1611387Y702029D01*
X1611230Y702486D01*
X1611084Y702947D01*
X1610949Y703411D01*
X1610826Y703878D01*
X1610714Y704348D01*
X1610614Y704821D01*
X1610526Y705296D01*
X1610449Y705773D01*
X1610384Y706251D01*
X1610331Y706732D01*
X1610289Y707213D01*
X1610260Y707695D01*
X1610242Y708178D01*
X1610236Y708661D01*
X1625984Y2047244D02*
X1625990Y2047727D01*
X1626008Y2048210D01*
X1626037Y2048692D01*
X1626079Y2049173D01*
X1626132Y2049654D01*
X1626197Y2050132D01*
X1626274Y2050609D01*
X1626362Y2051084D01*
X1626462Y2051557D01*
X1626574Y2052027D01*
X1626697Y2052494D01*
X1626832Y2052958D01*
X1626978Y2053419D01*
X1627135Y2053876D01*
X1627303Y2054329D01*
X1627482Y2054777D01*
X1627673Y2055221D01*
X1627874Y2055660D01*
X1628086Y2056095D01*
X1628308Y2056523D01*
X1628541Y2056947D01*
X1628785Y2057364D01*
X1629038Y2057775D01*
X1629302Y2058180D01*
X1629575Y2058579D01*
X1629858Y2058970D01*
X1630150Y2059355D01*
X1630452Y2059732D01*
X1630763Y2060102D01*
X1631083Y2060464D01*
X1631412Y2060818D01*
X1631750Y2061163D01*
X1632095Y2061501D01*
X1632449Y2061830D01*
X1632811Y2062150D01*
X1633181Y2062461D01*
X1633558Y2062763D01*
X1633943Y2063055D01*
X1634334Y2063338D01*
X1634733Y2063611D01*
X1635138Y2063875D01*
X1635549Y2064128D01*
X1635966Y2064372D01*
X1636390Y2064605D01*
X1636818Y2064827D01*
X1637253Y2065039D01*
X1637692Y2065240D01*
X1638136Y2065431D01*
X1638584Y2065610D01*
X1639037Y2065778D01*
X1639494Y2065935D01*
X1639955Y2066081D01*
X1640419Y2066216D01*
X1640886Y2066339D01*
X1641356Y2066451D01*
X1641829Y2066551D01*
X1642304Y2066639D01*
X1642781Y2066716D01*
X1643259Y2066781D01*
X1643740Y2066834D01*
X1644221Y2066876D01*
X1644703Y2066905D01*
X1645186Y2066923D01*
X1645669Y2066929D01*
X1646152Y2066923D01*
X1646635Y2066905D01*
X1647117Y2066876D01*
X1647598Y2066834D01*
X1648079Y2066781D01*
X1648557Y2066716D01*
X1649034Y2066639D01*
X1649509Y2066551D01*
X1649982Y2066451D01*
X1650452Y2066339D01*
X1650919Y2066216D01*
X1651383Y2066081D01*
X1651844Y2065935D01*
X1652301Y2065778D01*
X1652754Y2065610D01*
X1653202Y2065431D01*
X1653646Y2065240D01*
X1654085Y2065039D01*
X1654520Y2064827D01*
X1654948Y2064605D01*
X1655372Y2064372D01*
X1655789Y2064128D01*
X1656200Y2063875D01*
X1656605Y2063611D01*
X1657004Y2063338D01*
X1657395Y2063055D01*
X1657780Y2062763D01*
X1658157Y2062461D01*
X1658527Y2062150D01*
X1658889Y2061830D01*
X1659243Y2061501D01*
X1659588Y2061163D01*
X1659926Y2060818D01*
X1660255Y2060464D01*
X1660575Y2060102D01*
X1660886Y2059732D01*
X1661188Y2059355D01*
X1661480Y2058970D01*
X1661763Y2058579D01*
X1662036Y2058180D01*
X1662300Y2057775D01*
X1662553Y2057364D01*
X1662797Y2056947D01*
X1663030Y2056523D01*
X1663252Y2056095D01*
X1663464Y2055660D01*
X1663665Y2055221D01*
X1663856Y2054777D01*
X1664035Y2054329D01*
X1664203Y2053876D01*
X1664360Y2053419D01*
X1664506Y2052958D01*
X1664641Y2052494D01*
X1664764Y2052027D01*
X1664876Y2051557D01*
X1664976Y2051084D01*
X1665064Y2050609D01*
X1665141Y2050132D01*
X1665206Y2049654D01*
X1665259Y2049173D01*
X1665301Y2048692D01*
X1665330Y2048210D01*
X1665348Y2047727D01*
X1665354Y2047244D01*
X1665348Y2046761D01*
X1665330Y2046278D01*
X1665301Y2045796D01*
X1665259Y2045315D01*
X1665206Y2044834D01*
X1665141Y2044356D01*
X1665064Y2043879D01*
X1664976Y2043404D01*
X1664876Y2042931D01*
X1664764Y2042461D01*
X1664641Y2041994D01*
X1664506Y2041530D01*
X1664360Y2041069D01*
X1664203Y2040612D01*
X1664035Y2040159D01*
X1663856Y2039711D01*
X1663665Y2039267D01*
X1663464Y2038828D01*
X1663252Y2038393D01*
X1663030Y2037965D01*
X1662797Y2037541D01*
X1662553Y2037124D01*
X1662300Y2036713D01*
X1662036Y2036308D01*
X1661763Y2035909D01*
X1661480Y2035518D01*
X1661188Y2035133D01*
X1660886Y2034756D01*
X1660575Y2034386D01*
X1660255Y2034024D01*
X1659926Y2033670D01*
X1659588Y2033325D01*
X1659243Y2032987D01*
X1658889Y2032658D01*
X1658527Y2032338D01*
X1658157Y2032027D01*
X1657780Y2031725D01*
X1657395Y2031433D01*
X1657004Y2031150D01*
X1656605Y2030877D01*
X1656200Y2030613D01*
X1655789Y2030360D01*
X1655372Y2030116D01*
X1654948Y2029883D01*
X1654520Y2029661D01*
X1654085Y2029449D01*
X1653646Y2029248D01*
X1653202Y2029057D01*
X1652754Y2028878D01*
X1652301Y2028710D01*
X1651844Y2028553D01*
X1651383Y2028407D01*
X1650919Y2028272D01*
X1650452Y2028149D01*
X1649982Y2028037D01*
X1649509Y2027937D01*
X1649034Y2027849D01*
X1648557Y2027772D01*
X1648079Y2027707D01*
X1647598Y2027654D01*
X1647117Y2027612D01*
X1646635Y2027583D01*
X1646152Y2027565D01*
X1645669Y2027559D01*
X1645186Y2027565D01*
X1644703Y2027583D01*
X1644221Y2027612D01*
X1643740Y2027654D01*
X1643259Y2027707D01*
X1642781Y2027772D01*
X1642304Y2027849D01*
X1641829Y2027937D01*
X1641356Y2028037D01*
X1640886Y2028149D01*
X1640419Y2028272D01*
X1639955Y2028407D01*
X1639494Y2028553D01*
X1639037Y2028710D01*
X1638584Y2028878D01*
X1638136Y2029057D01*
X1637692Y2029248D01*
X1637253Y2029449D01*
X1636818Y2029661D01*
X1636390Y2029883D01*
X1635966Y2030116D01*
X1635549Y2030360D01*
X1635138Y2030613D01*
X1634733Y2030877D01*
X1634334Y2031150D01*
X1633943Y2031433D01*
X1633558Y2031725D01*
X1633181Y2032027D01*
X1632811Y2032338D01*
X1632449Y2032658D01*
X1632095Y2032987D01*
X1631750Y2033325D01*
X1631412Y2033670D01*
X1631083Y2034024D01*
X1630763Y2034386D01*
X1630452Y2034756D01*
X1630150Y2035133D01*
X1629858Y2035518D01*
X1629575Y2035909D01*
X1629302Y2036308D01*
X1629038Y2036713D01*
X1628785Y2037124D01*
X1628541Y2037541D01*
X1628308Y2037965D01*
X1628086Y2038393D01*
X1627874Y2038828D01*
X1627673Y2039267D01*
X1627482Y2039711D01*
X1627303Y2040159D01*
X1627135Y2040612D01*
X1626978Y2041069D01*
X1626832Y2041530D01*
X1626697Y2041994D01*
X1626574Y2042461D01*
X1626462Y2042931D01*
X1626362Y2043404D01*
X1626274Y2043879D01*
X1626197Y2044356D01*
X1626132Y2044834D01*
X1626079Y2045315D01*
X1626037Y2045796D01*
X1626008Y2046278D01*
X1625990Y2046761D01*
X1625984Y2047244D01*
X118110Y1921260D02*
X118116Y1921743D01*
X118134Y1922226D01*
X118163Y1922708D01*
X118205Y1923189D01*
X118258Y1923670D01*
X118323Y1924148D01*
X118400Y1924625D01*
X118488Y1925100D01*
X118588Y1925573D01*
X118700Y1926043D01*
X118823Y1926510D01*
X118958Y1926974D01*
X119104Y1927435D01*
X119261Y1927892D01*
X119429Y1928345D01*
X119608Y1928793D01*
X119799Y1929237D01*
X120000Y1929676D01*
X120212Y1930111D01*
X120434Y1930539D01*
X120667Y1930963D01*
X120911Y1931380D01*
X121164Y1931791D01*
X121428Y1932196D01*
X121701Y1932595D01*
X121984Y1932986D01*
X122276Y1933371D01*
X122578Y1933748D01*
X122889Y1934118D01*
X123209Y1934480D01*
X123538Y1934834D01*
X123876Y1935179D01*
X124221Y1935517D01*
X124575Y1935846D01*
X124937Y1936166D01*
X125307Y1936477D01*
X125684Y1936779D01*
X126069Y1937071D01*
X126460Y1937354D01*
X126859Y1937627D01*
X127264Y1937891D01*
X127675Y1938144D01*
X128092Y1938388D01*
X128516Y1938621D01*
X128944Y1938843D01*
X129379Y1939055D01*
X129818Y1939256D01*
X130262Y1939447D01*
X130710Y1939626D01*
X131163Y1939794D01*
X131620Y1939951D01*
X132081Y1940097D01*
X132545Y1940232D01*
X133012Y1940355D01*
X133482Y1940467D01*
X133955Y1940567D01*
X134430Y1940655D01*
X134907Y1940732D01*
X135385Y1940797D01*
X135866Y1940850D01*
X136347Y1940892D01*
X136829Y1940921D01*
X137312Y1940939D01*
X137795Y1940945D01*
X138278Y1940939D01*
X138761Y1940921D01*
X139243Y1940892D01*
X139724Y1940850D01*
X140205Y1940797D01*
X140683Y1940732D01*
X141160Y1940655D01*
X141635Y1940567D01*
X142108Y1940467D01*
X142578Y1940355D01*
X143045Y1940232D01*
X143509Y1940097D01*
X143970Y1939951D01*
X144427Y1939794D01*
X144880Y1939626D01*
X145328Y1939447D01*
X145772Y1939256D01*
X146211Y1939055D01*
X146646Y1938843D01*
X147074Y1938621D01*
X147498Y1938388D01*
X147915Y1938144D01*
X148326Y1937891D01*
X148731Y1937627D01*
X149130Y1937354D01*
X149521Y1937071D01*
X149906Y1936779D01*
X150283Y1936477D01*
X150653Y1936166D01*
X151015Y1935846D01*
X151369Y1935517D01*
X151714Y1935179D01*
X152052Y1934834D01*
X152381Y1934480D01*
X152701Y1934118D01*
X153012Y1933748D01*
X153314Y1933371D01*
X153606Y1932986D01*
X153889Y1932595D01*
X154162Y1932196D01*
X154426Y1931791D01*
X154679Y1931380D01*
X154923Y1930963D01*
X155156Y1930539D01*
X155378Y1930111D01*
X155590Y1929676D01*
X155791Y1929237D01*
X155982Y1928793D01*
X156161Y1928345D01*
X156329Y1927892D01*
X156486Y1927435D01*
X156632Y1926974D01*
X156767Y1926510D01*
X156890Y1926043D01*
X157002Y1925573D01*
X157102Y1925100D01*
X157190Y1924625D01*
X157267Y1924148D01*
X157332Y1923670D01*
X157385Y1923189D01*
X157427Y1922708D01*
X157456Y1922226D01*
X157474Y1921743D01*
X157480Y1921260D01*
X157474Y1920777D01*
X157456Y1920294D01*
X157427Y1919812D01*
X157385Y1919331D01*
X157332Y1918850D01*
X157267Y1918372D01*
X157190Y1917895D01*
X157102Y1917420D01*
X157002Y1916947D01*
X156890Y1916477D01*
X156767Y1916010D01*
X156632Y1915546D01*
X156486Y1915085D01*
X156329Y1914628D01*
X156161Y1914175D01*
X155982Y1913727D01*
X155791Y1913283D01*
X155590Y1912844D01*
X155378Y1912409D01*
X155156Y1911981D01*
X154923Y1911557D01*
X154679Y1911140D01*
X154426Y1910729D01*
X154162Y1910324D01*
X153889Y1909925D01*
X153606Y1909534D01*
X153314Y1909149D01*
X153012Y1908772D01*
X152701Y1908402D01*
X152381Y1908040D01*
X152052Y1907686D01*
X151714Y1907341D01*
X151369Y1907003D01*
X151015Y1906674D01*
X150653Y1906354D01*
X150283Y1906043D01*
X149906Y1905741D01*
X149521Y1905449D01*
X149130Y1905166D01*
X148731Y1904893D01*
X148326Y1904629D01*
X147915Y1904376D01*
X147498Y1904132D01*
X147074Y1903899D01*
X146646Y1903677D01*
X146211Y1903465D01*
X145772Y1903264D01*
X145328Y1903073D01*
X144880Y1902894D01*
X144427Y1902726D01*
X143970Y1902569D01*
X143509Y1902423D01*
X143045Y1902288D01*
X142578Y1902165D01*
X142108Y1902053D01*
X141635Y1901953D01*
X141160Y1901865D01*
X140683Y1901788D01*
X140205Y1901723D01*
X139724Y1901670D01*
X139243Y1901628D01*
X138761Y1901599D01*
X138278Y1901581D01*
X137795Y1901575D01*
X137312Y1901581D01*
X136829Y1901599D01*
X136347Y1901628D01*
X135866Y1901670D01*
X135385Y1901723D01*
X134907Y1901788D01*
X134430Y1901865D01*
X133955Y1901953D01*
X133482Y1902053D01*
X133012Y1902165D01*
X132545Y1902288D01*
X132081Y1902423D01*
X131620Y1902569D01*
X131163Y1902726D01*
X130710Y1902894D01*
X130262Y1903073D01*
X129818Y1903264D01*
X129379Y1903465D01*
X128944Y1903677D01*
X128516Y1903899D01*
X128092Y1904132D01*
X127675Y1904376D01*
X127264Y1904629D01*
X126859Y1904893D01*
X126460Y1905166D01*
X126069Y1905449D01*
X125684Y1905741D01*
X125307Y1906043D01*
X124937Y1906354D01*
X124575Y1906674D01*
X124221Y1907003D01*
X123876Y1907341D01*
X123538Y1907686D01*
X123209Y1908040D01*
X122889Y1908402D01*
X122578Y1908772D01*
X122276Y1909149D01*
X121984Y1909534D01*
X121701Y1909925D01*
X121428Y1910324D01*
X121164Y1910729D01*
X120911Y1911140D01*
X120667Y1911557D01*
X120434Y1911981D01*
X120212Y1912409D01*
X120000Y1912844D01*
X119799Y1913283D01*
X119608Y1913727D01*
X119429Y1914175D01*
X119261Y1914628D01*
X119104Y1915085D01*
X118958Y1915546D01*
X118823Y1916010D01*
X118700Y1916477D01*
X118588Y1916947D01*
X118488Y1917420D01*
X118400Y1917895D01*
X118323Y1918372D01*
X118258Y1918850D01*
X118205Y1919331D01*
X118163Y1919812D01*
X118134Y1920294D01*
X118116Y1920777D01*
X118110Y1921260D01*
X125984Y889764D02*
X125990Y890247D01*
X126008Y890730D01*
X126037Y891212D01*
X126079Y891693D01*
X126132Y892174D01*
X126197Y892652D01*
X126274Y893129D01*
X126362Y893604D01*
X126462Y894077D01*
X126574Y894547D01*
X126697Y895014D01*
X126832Y895478D01*
X126978Y895939D01*
X127135Y896396D01*
X127303Y896849D01*
X127482Y897297D01*
X127673Y897741D01*
X127874Y898180D01*
X128086Y898615D01*
X128308Y899043D01*
X128541Y899467D01*
X128785Y899884D01*
X129038Y900295D01*
X129302Y900700D01*
X129575Y901099D01*
X129858Y901490D01*
X130150Y901875D01*
X130452Y902252D01*
X130763Y902622D01*
X131083Y902984D01*
X131412Y903338D01*
X131750Y903683D01*
X132095Y904021D01*
X132449Y904350D01*
X132811Y904670D01*
X133181Y904981D01*
X133558Y905283D01*
X133943Y905575D01*
X134334Y905858D01*
X134733Y906131D01*
X135138Y906395D01*
X135549Y906648D01*
X135966Y906892D01*
X136390Y907125D01*
X136818Y907347D01*
X137253Y907559D01*
X137692Y907760D01*
X138136Y907951D01*
X138584Y908130D01*
X139037Y908298D01*
X139494Y908455D01*
X139955Y908601D01*
X140419Y908736D01*
X140886Y908859D01*
X141356Y908971D01*
X141829Y909071D01*
X142304Y909159D01*
X142781Y909236D01*
X143259Y909301D01*
X143740Y909354D01*
X144221Y909396D01*
X144703Y909425D01*
X145186Y909443D01*
X145669Y909449D01*
X146152Y909443D01*
X146635Y909425D01*
X147117Y909396D01*
X147598Y909354D01*
X148079Y909301D01*
X148557Y909236D01*
X149034Y909159D01*
X149509Y909071D01*
X149982Y908971D01*
X150452Y908859D01*
X150919Y908736D01*
X151383Y908601D01*
X151844Y908455D01*
X152301Y908298D01*
X152754Y908130D01*
X153202Y907951D01*
X153646Y907760D01*
X154085Y907559D01*
X154520Y907347D01*
X154948Y907125D01*
X155372Y906892D01*
X155789Y906648D01*
X156200Y906395D01*
X156605Y906131D01*
X157004Y905858D01*
X157395Y905575D01*
X157780Y905283D01*
X158157Y904981D01*
X158527Y904670D01*
X158889Y904350D01*
X159243Y904021D01*
X159588Y903683D01*
X159926Y903338D01*
X160255Y902984D01*
X160575Y902622D01*
X160886Y902252D01*
X161188Y901875D01*
X161480Y901490D01*
X161763Y901099D01*
X162036Y900700D01*
X162300Y900295D01*
X162553Y899884D01*
X162797Y899467D01*
X163030Y899043D01*
X163252Y898615D01*
X163464Y898180D01*
X163665Y897741D01*
X163856Y897297D01*
X164035Y896849D01*
X164203Y896396D01*
X164360Y895939D01*
X164506Y895478D01*
X164641Y895014D01*
X164764Y894547D01*
X164876Y894077D01*
X164976Y893604D01*
X165064Y893129D01*
X165141Y892652D01*
X165206Y892174D01*
X165259Y891693D01*
X165301Y891212D01*
X165330Y890730D01*
X165348Y890247D01*
X165354Y889764D01*
X165348Y889281D01*
X165330Y888798D01*
X165301Y888316D01*
X165259Y887835D01*
X165206Y887354D01*
X165141Y886876D01*
X165064Y886399D01*
X164976Y885924D01*
X164876Y885451D01*
X164764Y884981D01*
X164641Y884514D01*
X164506Y884050D01*
X164360Y883589D01*
X164203Y883132D01*
X164035Y882679D01*
X163856Y882231D01*
X163665Y881787D01*
X163464Y881348D01*
X163252Y880913D01*
X163030Y880485D01*
X162797Y880061D01*
X162553Y879644D01*
X162300Y879233D01*
X162036Y878828D01*
X161763Y878429D01*
X161480Y878038D01*
X161188Y877653D01*
X160886Y877276D01*
X160575Y876906D01*
X160255Y876544D01*
X159926Y876190D01*
X159588Y875845D01*
X159243Y875507D01*
X158889Y875178D01*
X158527Y874858D01*
X158157Y874547D01*
X157780Y874245D01*
X157395Y873953D01*
X157004Y873670D01*
X156605Y873397D01*
X156200Y873133D01*
X155789Y872880D01*
X155372Y872636D01*
X154948Y872403D01*
X154520Y872181D01*
X154085Y871969D01*
X153646Y871768D01*
X153202Y871577D01*
X152754Y871398D01*
X152301Y871230D01*
X151844Y871073D01*
X151383Y870927D01*
X150919Y870792D01*
X150452Y870669D01*
X149982Y870557D01*
X149509Y870457D01*
X149034Y870369D01*
X148557Y870292D01*
X148079Y870227D01*
X147598Y870174D01*
X147117Y870132D01*
X146635Y870103D01*
X146152Y870085D01*
X145669Y870079D01*
X145186Y870085D01*
X144703Y870103D01*
X144221Y870132D01*
X143740Y870174D01*
X143259Y870227D01*
X142781Y870292D01*
X142304Y870369D01*
X141829Y870457D01*
X141356Y870557D01*
X140886Y870669D01*
X140419Y870792D01*
X139955Y870927D01*
X139494Y871073D01*
X139037Y871230D01*
X138584Y871398D01*
X138136Y871577D01*
X137692Y871768D01*
X137253Y871969D01*
X136818Y872181D01*
X136390Y872403D01*
X135966Y872636D01*
X135549Y872880D01*
X135138Y873133D01*
X134733Y873397D01*
X134334Y873670D01*
X133943Y873953D01*
X133558Y874245D01*
X133181Y874547D01*
X132811Y874858D01*
X132449Y875178D01*
X132095Y875507D01*
X131750Y875845D01*
X131412Y876190D01*
X131083Y876544D01*
X130763Y876906D01*
X130452Y877276D01*
X130150Y877653D01*
X129858Y878038D01*
X129575Y878429D01*
X129302Y878828D01*
X129038Y879233D01*
X128785Y879644D01*
X128541Y880061D01*
X128308Y880485D01*
X128086Y880913D01*
X127874Y881348D01*
X127673Y881787D01*
X127482Y882231D01*
X127303Y882679D01*
X127135Y883132D01*
X126978Y883589D01*
X126832Y884050D01*
X126697Y884514D01*
X126574Y884981D01*
X126462Y885451D01*
X126362Y885924D01*
X126274Y886399D01*
X126197Y886876D01*
X126132Y887354D01*
X126079Y887835D01*
X126037Y888316D01*
X126008Y888798D01*
X125990Y889281D01*
X125984Y889764D01*
D11*
X0Y0D02*
X1771654Y0D01*
X1771654Y2637795D01*
X0Y2637795D01*
X0Y0D01*
X1649606Y707556D02*
X1649359Y705359D01*
X1648867Y703203D01*
X1648137Y701116D01*
X1647177Y699124D01*
X1646001Y697252D01*
X1644622Y695524D01*
X1643059Y693960D01*
X1641330Y692582D01*
X1639458Y691406D01*
X1637466Y690446D01*
X1635379Y689716D01*
X1633224Y689224D01*
X1631027Y688976D01*
X1628816Y688976D01*
X1626619Y689224D01*
X1624463Y689716D01*
X1622376Y690446D01*
X1620384Y691406D01*
X1618512Y692582D01*
X1616784Y693960D01*
X1615220Y695524D01*
X1613842Y697252D01*
X1612665Y699124D01*
X1611706Y701116D01*
X1610976Y703203D01*
X1610484Y705359D01*
X1610236Y707556D01*
X1610236Y709767D01*
X1610484Y711964D01*
X1610976Y714119D01*
X1611706Y716206D01*
X1612665Y718198D01*
X1613842Y720070D01*
X1615220Y721799D01*
X1616784Y723363D01*
X1618512Y724741D01*
X1620384Y725917D01*
X1622376Y726877D01*
X1624463Y727607D01*
X1626619Y728099D01*
X1628816Y728346D01*
X1631027Y728346D01*
X1633224Y728099D01*
X1635379Y727607D01*
X1637466Y726877D01*
X1639458Y725917D01*
X1641330Y724741D01*
X1643059Y723363D01*
X1644622Y721799D01*
X1646001Y720070D01*
X1647177Y718198D01*
X1648137Y716206D01*
X1648867Y714119D01*
X1649359Y711964D01*
X1649606Y709767D01*
X1649606Y707556D01*
X1665354Y2046139D02*
X1665107Y2043942D01*
X1664615Y2041786D01*
X1663885Y2039699D01*
X1662925Y2037707D01*
X1661749Y2035835D01*
X1660370Y2034106D01*
X1658807Y2032543D01*
X1657078Y2031164D01*
X1655206Y2029988D01*
X1653214Y2029029D01*
X1651127Y2028299D01*
X1648972Y2027807D01*
X1646775Y2027559D01*
X1644564Y2027559D01*
X1642367Y2027807D01*
X1640211Y2028299D01*
X1638124Y2029029D01*
X1636132Y2029988D01*
X1634260Y2031164D01*
X1632532Y2032543D01*
X1630968Y2034106D01*
X1629590Y2035835D01*
X1628413Y2037707D01*
X1627454Y2039699D01*
X1626724Y2041786D01*
X1626232Y2043942D01*
X1625984Y2046139D01*
X1625984Y2048350D01*
X1626232Y2050547D01*
X1626724Y2052702D01*
X1627454Y2054789D01*
X1628413Y2056781D01*
X1629590Y2058653D01*
X1630968Y2060382D01*
X1632532Y2061945D01*
X1634260Y2063324D01*
X1636132Y2064500D01*
X1638124Y2065459D01*
X1640211Y2066190D01*
X1642367Y2066682D01*
X1644564Y2066929D01*
X1646775Y2066929D01*
X1648972Y2066682D01*
X1651127Y2066190D01*
X1653214Y2065459D01*
X1655206Y2064500D01*
X1657078Y2063324D01*
X1658807Y2061945D01*
X1660370Y2060382D01*
X1661749Y2058653D01*
X1662925Y2056781D01*
X1663885Y2054789D01*
X1664615Y2052702D01*
X1665107Y2050547D01*
X1665354Y2048350D01*
X1665354Y2046139D01*
X157480Y1920154D02*
X157233Y1917957D01*
X156741Y1915802D01*
X156011Y1913715D01*
X155051Y1911723D01*
X153875Y1909851D01*
X152496Y1908122D01*
X150933Y1906559D01*
X149204Y1905180D01*
X147332Y1904004D01*
X145340Y1903045D01*
X143253Y1902314D01*
X141098Y1901822D01*
X138901Y1901575D01*
X136690Y1901575D01*
X134493Y1901822D01*
X132337Y1902314D01*
X130250Y1903045D01*
X128258Y1904004D01*
X126386Y1905180D01*
X124658Y1906559D01*
X123094Y1908122D01*
X121716Y1909851D01*
X120539Y1911723D01*
X119580Y1913715D01*
X118850Y1915802D01*
X118358Y1917957D01*
X118110Y1920154D01*
X118110Y1922365D01*
X118358Y1924562D01*
X118850Y1926718D01*
X119580Y1928805D01*
X120539Y1930797D01*
X121716Y1932669D01*
X123094Y1934398D01*
X124658Y1935961D01*
X126386Y1937339D01*
X128258Y1938516D01*
X130250Y1939475D01*
X132337Y1940205D01*
X134493Y1940697D01*
X136690Y1940945D01*
X138901Y1940945D01*
X141098Y1940697D01*
X143253Y1940205D01*
X145340Y1939475D01*
X147332Y1938516D01*
X149204Y1937339D01*
X150933Y1935961D01*
X152496Y1934398D01*
X153875Y1932669D01*
X155051Y1930797D01*
X156011Y1928805D01*
X156741Y1926718D01*
X157233Y1924562D01*
X157480Y1922365D01*
X157480Y1920154D01*
X165354Y888658D02*
X165107Y886461D01*
X164615Y884306D01*
X163885Y882219D01*
X162925Y880227D01*
X161749Y878355D01*
X160370Y876626D01*
X158807Y875063D01*
X157078Y873684D01*
X155206Y872508D01*
X153214Y871548D01*
X151127Y870818D01*
X148972Y870326D01*
X146775Y870079D01*
X144564Y870079D01*
X142367Y870326D01*
X140211Y870818D01*
X138124Y871548D01*
X136132Y872508D01*
X134260Y873684D01*
X132532Y875063D01*
X130968Y876626D01*
X129590Y878355D01*
X128413Y880227D01*
X127454Y882219D01*
X126724Y884306D01*
X126232Y886461D01*
X125984Y888658D01*
X125984Y890869D01*
X126232Y893066D01*
X126724Y895222D01*
X127454Y897309D01*
X128413Y899301D01*
X129590Y901173D01*
X130968Y902901D01*
X132532Y904465D01*
X134260Y905843D01*
X136132Y907020D01*
X138124Y907979D01*
X140211Y908709D01*
X142367Y909201D01*
X144564Y909449D01*
X146775Y909449D01*
X148972Y909201D01*
X151127Y908709D01*
X153214Y907979D01*
X155206Y907020D01*
X157078Y905843D01*
X158807Y904465D01*
X160370Y902901D01*
X161749Y901173D01*
X162925Y899301D01*
X163885Y897309D01*
X164615Y895222D01*
X165107Y893066D01*
X165354Y890869D01*
X165354Y888658D01*
M02*
