G04 EAGLE Gerber X2 export*
%TF.Part,Single*%
%TF.FileFunction,Legend,Bot,1*%
%TF.FilePolarity,Positive*%
%TF.GenerationSoftware,Autodesk,EAGLE,9.6.2*%
%TF.CreationDate,2023-04-03T04:02:25Z*%
G75*
%MOIN*%
%FSLAX36Y36*%
%LPD*%
%INBottom Silkscreen*%
%AMOC8*
5,1,8,0,0,1.08239X$1,22.5*%
G01*
%ADD10C,0.005000*%


D10*
X858268Y279528D02*
X834646Y279528D01*
X755906Y279528D01*
X732283Y279528D01*
X732283Y259843D01*
X732283Y236220D02*
X732283Y216535D01*
X755906Y216535D01*
X834646Y216535D01*
X858268Y216535D01*
X858268Y236220D01*
X858268Y259843D02*
X858268Y279528D01*
X858268Y259842D02*
X857980Y259838D01*
X857693Y259828D01*
X857406Y259810D01*
X857119Y259786D01*
X856833Y259755D01*
X856548Y259716D01*
X856264Y259671D01*
X855981Y259619D01*
X855700Y259559D01*
X855420Y259493D01*
X855142Y259421D01*
X854865Y259341D01*
X854591Y259255D01*
X854319Y259162D01*
X854049Y259063D01*
X853781Y258957D01*
X853517Y258844D01*
X853255Y258725D01*
X852996Y258600D01*
X852740Y258468D01*
X852487Y258331D01*
X852238Y258187D01*
X851993Y258037D01*
X851751Y257881D01*
X851513Y257720D01*
X851279Y257552D01*
X851049Y257379D01*
X850824Y257201D01*
X850603Y257017D01*
X850386Y256828D01*
X850174Y256633D01*
X849967Y256433D01*
X849765Y256229D01*
X849568Y256019D01*
X849376Y255805D01*
X849190Y255586D01*
X849008Y255363D01*
X848832Y255135D01*
X848662Y254903D01*
X848498Y254667D01*
X848339Y254428D01*
X848186Y254184D01*
X848039Y253937D01*
X847899Y253686D01*
X847764Y253431D01*
X847636Y253174D01*
X847514Y252914D01*
X847398Y252650D01*
X847289Y252384D01*
X847186Y252116D01*
X847090Y251845D01*
X847000Y251571D01*
X846917Y251296D01*
X846841Y251018D01*
X846772Y250739D01*
X846709Y250459D01*
X846653Y250176D01*
X846605Y249893D01*
X846563Y249608D01*
X846528Y249323D01*
X846500Y249037D01*
X846479Y248750D01*
X846465Y248462D01*
X846458Y248175D01*
X846458Y247887D01*
X846465Y247600D01*
X846479Y247312D01*
X846500Y247025D01*
X846528Y246739D01*
X846563Y246454D01*
X846605Y246169D01*
X846653Y245886D01*
X846709Y245603D01*
X846772Y245323D01*
X846841Y245044D01*
X846917Y244766D01*
X847000Y244491D01*
X847090Y244217D01*
X847186Y243946D01*
X847289Y243678D01*
X847398Y243412D01*
X847514Y243148D01*
X847636Y242888D01*
X847764Y242631D01*
X847899Y242376D01*
X848039Y242125D01*
X848186Y241878D01*
X848339Y241634D01*
X848498Y241395D01*
X848662Y241159D01*
X848832Y240927D01*
X849008Y240699D01*
X849190Y240476D01*
X849376Y240257D01*
X849568Y240043D01*
X849765Y239833D01*
X849967Y239629D01*
X850174Y239429D01*
X850386Y239234D01*
X850603Y239045D01*
X850824Y238861D01*
X851049Y238683D01*
X851279Y238510D01*
X851513Y238342D01*
X851751Y238181D01*
X851993Y238025D01*
X852238Y237875D01*
X852487Y237731D01*
X852740Y237594D01*
X852996Y237462D01*
X853255Y237337D01*
X853517Y237218D01*
X853781Y237105D01*
X854049Y236999D01*
X854319Y236900D01*
X854591Y236807D01*
X854865Y236721D01*
X855142Y236641D01*
X855420Y236569D01*
X855700Y236503D01*
X855981Y236443D01*
X856264Y236391D01*
X856548Y236346D01*
X856833Y236307D01*
X857119Y236276D01*
X857406Y236252D01*
X857693Y236234D01*
X857980Y236224D01*
X858268Y236220D01*
X732283Y236220D02*
X732571Y236224D01*
X732858Y236234D01*
X733145Y236252D01*
X733432Y236276D01*
X733718Y236307D01*
X734003Y236346D01*
X734287Y236391D01*
X734570Y236443D01*
X734851Y236503D01*
X735131Y236569D01*
X735409Y236641D01*
X735686Y236721D01*
X735960Y236807D01*
X736232Y236900D01*
X736502Y236999D01*
X736770Y237105D01*
X737034Y237218D01*
X737296Y237337D01*
X737555Y237462D01*
X737811Y237594D01*
X738064Y237731D01*
X738313Y237875D01*
X738558Y238025D01*
X738800Y238181D01*
X739038Y238342D01*
X739272Y238510D01*
X739502Y238683D01*
X739727Y238861D01*
X739948Y239045D01*
X740165Y239234D01*
X740377Y239429D01*
X740584Y239629D01*
X740786Y239833D01*
X740983Y240043D01*
X741175Y240257D01*
X741361Y240476D01*
X741543Y240699D01*
X741719Y240927D01*
X741889Y241159D01*
X742053Y241395D01*
X742212Y241634D01*
X742365Y241878D01*
X742512Y242126D01*
X742652Y242376D01*
X742787Y242631D01*
X742915Y242888D01*
X743037Y243148D01*
X743153Y243412D01*
X743262Y243678D01*
X743365Y243946D01*
X743461Y244217D01*
X743551Y244491D01*
X743634Y244766D01*
X743710Y245044D01*
X743779Y245323D01*
X743842Y245603D01*
X743898Y245886D01*
X743946Y246169D01*
X743988Y246454D01*
X744023Y246739D01*
X744051Y247025D01*
X744072Y247312D01*
X744086Y247600D01*
X744093Y247887D01*
X744093Y248175D01*
X744086Y248462D01*
X744072Y248750D01*
X744051Y249037D01*
X744023Y249323D01*
X743988Y249608D01*
X743946Y249893D01*
X743898Y250176D01*
X743842Y250459D01*
X743779Y250739D01*
X743710Y251018D01*
X743634Y251296D01*
X743551Y251571D01*
X743461Y251845D01*
X743365Y252116D01*
X743262Y252384D01*
X743153Y252650D01*
X743037Y252914D01*
X742915Y253174D01*
X742787Y253431D01*
X742652Y253686D01*
X742512Y253937D01*
X742365Y254184D01*
X742212Y254428D01*
X742053Y254667D01*
X741889Y254903D01*
X741719Y255135D01*
X741543Y255363D01*
X741361Y255586D01*
X741175Y255805D01*
X740983Y256019D01*
X740786Y256229D01*
X740584Y256433D01*
X740377Y256633D01*
X740165Y256828D01*
X739948Y257017D01*
X739727Y257201D01*
X739502Y257379D01*
X739272Y257552D01*
X739038Y257720D01*
X738800Y257881D01*
X738558Y258037D01*
X738313Y258187D01*
X738064Y258331D01*
X737811Y258468D01*
X737555Y258600D01*
X737296Y258725D01*
X737034Y258844D01*
X736770Y258957D01*
X736502Y259063D01*
X736232Y259162D01*
X735960Y259255D01*
X735686Y259341D01*
X735409Y259421D01*
X735131Y259493D01*
X734851Y259559D01*
X734570Y259619D01*
X734287Y259671D01*
X734003Y259716D01*
X733718Y259755D01*
X733432Y259786D01*
X733145Y259810D01*
X732858Y259828D01*
X732571Y259838D01*
X732283Y259842D01*
X834646Y279528D02*
X834646Y216535D01*
X755906Y216535D02*
X755906Y279528D01*
M02*
